<?xml version="1.0" encoding="UTF-8" standalone="no"?>
<svg width="345px" height="282px" viewBox="0 0 345 282" version="1.1" xmlns="http://www.w3.org/2000/svg" xmlns:xlink="http://www.w3.org/1999/xlink" xmlns:sketch="http://www.bohemiancoding.com/sketch/ns">
    <!-- Generator: Sketch 3.3.2 (12043) - http://www.bohemiancoding.com/sketch -->
    <title>roostr_logo copy</title>
    <desc>Created with Sketch.</desc>
    <defs>
        <path id="path-1" d="M0,0.0607123947 L1351.77784,0.0607123947 L1351.77784,397.580313 L0,397.580313"></path>
        <path id="path-3" d="M0,0.0607123947 L1351.77784,0.0607123947 L1351.77784,397.580313 L0,397.580313"></path>
    </defs>
    <g id="Page-1" stroke="none" stroke-width="1" fill="none" fill-rule="evenodd" sketch:type="MSPage">
        <g id="Creator" sketch:type="MSArtboardGroup" transform="translate(-88.000000, -4228.000000)">
            <g id="roostr_logo-copy" sketch:type="MSLayerGroup" transform="translate(88.000000, 4189.500000)">
                <path d="M195.789596,115.754907 L211.411642,150.089174 L245.565905,95.2501998 L195.789596,115.754907" id="Fill-1" fill="#FFFFFF" sketch:type="MSShapeGroup"></path>
                <path d="M218.028545,166.293463 L231.488091,195.616332 L264.102437,164.551995 L218.028545,166.293463" id="Fill-2" fill="#FFFFFF" sketch:type="MSShapeGroup"></path>
                <path d="M187.270441,109.006359 L183.938984,62.1853333 L16.6946684,90.4143875 L65.6571647,114.838118 L0,216.2333 L49.5275643,203.121916 L32.5194485,265.017434 L53.392457,250.771937 L40.641762,289.311634 L64.747017,286.653377 L69.7592997,329.031499 L86.4971031,320.080929 L113.390315,149.471745 L187.270441,109.006359" id="Fill-3" fill="#FFFFFF" sketch:type="MSShapeGroup"></path>
                <g id="Group-7" transform="translate(0.000000, 0.978941)">
                    <mask id="mask-2" sketch:name="Clip 5" fill="white">
                        <use xlink:href="#path-1"></use>
                    </mask>
                    <g id="Clip-5"></g>
                    <path d="M234.54636,200.495057 L249.176302,187.638416 L293.659951,250.754402 L265.36054,271.541199 L234.54636,200.495057" id="Fill-4" fill="#FFFFFF" sketch:type="MSShapeGroup" mask="url(#mask-2)"></path>
                    <path d="M171.759108,171.388072 L161.175226,152.070729 L175.749092,144.150647 L186.551525,164.780568 L171.759108,171.388072 L171.759108,171.388072 Z M190.992988,116.739076 L122.404084,154.410917 L92.4511658,374.803061 L127.621977,335.595562 L144.1743,397.666667 L183.106479,325.187052 L210.642402,370.46954 L228.437012,323.962267 L242.162557,357.571162 L257.462528,326.493872 L292.575826,351.768188 L190.992988,116.739076 L190.992988,116.739076 Z" id="Fill-6" fill="#FFFFFF" sketch:type="MSShapeGroup" mask="url(#mask-2)"></path>
                </g>
                <g id="Group-7-Copy" transform="translate(0.000000, 0.978941)">
                    <mask id="mask-4" sketch:name="Clip 5" fill="white">
                        <use xlink:href="#path-3"></use>
                    </mask>
                    <g id="Clip-5"></g>
                    <path d="M234.54636,200.495057 L249.176302,187.638416 L293.659951,250.754402 L265.36054,271.541199 L234.54636,200.495057" id="Fill-4" fill="#FFFFFF" sketch:type="MSShapeGroup" mask="url(#mask-4)"></path>
                    <path d="M171.759108,171.388072 L161.175226,152.070729 L175.749092,144.150647 L186.551525,164.780568 L171.759108,171.388072 L171.759108,171.388072 Z M190.992988,116.739076 L122.404084,154.410917 L92.4511658,374.803061 L127.621977,335.595562 L144.1743,397.666667 L183.106479,325.187052 L210.642402,370.46954 L228.437012,323.962267 L242.162557,357.571162 L257.462528,326.493872 L292.575826,351.768188 L190.992988,116.739076 L190.992988,116.739076 Z" id="Fill-6" fill="#FFFFFF" sketch:type="MSShapeGroup" mask="url(#mask-4)"></path>
                </g>
                <path d="M282.224872,118.970147 C277.434016,107.238984 269.215368,97.5817521 258.463259,90.9843225 L253.827689,103.8827 C261.008222,108.904173 266.535249,115.800963 269.889711,124.017526 C273.247049,132.235528 274.122689,140.97885 272.531009,149.562416 L284.864732,155.425839 C287.87699,143.23844 287.009978,130.688356 282.224872,118.970147" id="Fill-8" fill="#FFFFFF" sketch:type="MSShapeGroup"></path>
                <path d="M310.475397,108.342874 C302.44223,88.6729194 286.909329,73.7409097 267.275732,66.4627244 L262.766691,79.0099302 C278.843091,85.0143971 291.557841,97.2665608 298.141674,113.390253 C304.440816,128.814479 304.183444,146.213329 297.527719,161.446137 L309.562374,167.168515 C317.821282,148.553516 318.189367,127.229887 310.475397,108.342874" id="Fill-9" fill="#FFFFFF" sketch:type="MSShapeGroup"></path>
                <path d="M324.901167,98.8655451 C334.643917,122.723658 332.180911,149.848823 318.77744,171.548091 L330.885424,177.305011 C345.831689,152.222113 348.406846,121.175047 337.234891,93.8181661 C326.307367,67.061444 304.035348,47.3339206 276.994039,39.4224741 L272.47062,52.0099783 C296.006493,58.6448279 315.427291,75.6694777 324.901167,98.8655451" id="Fill-10" fill="#FFFFFF" sketch:type="MSShapeGroup"></path>
            </g>
        </g>
    </g>
</svg>