<?xml version="1.0" encoding="utf-8"?>
<!-- Generator: Adobe Illustrator 18.1.1, SVG Export Plug-In . SVG Version: 6.00 Build 0)  -->
<svg version="1.1" id="Layer_1" xmlns="http://www.w3.org/2000/svg" xmlns:xlink="http://www.w3.org/1999/xlink" x="0px" y="0px"
	 viewBox="0 0 2048 1536" enable-background="new 0 0 2048 1536" xml:space="preserve">
<g>
	<polyline fill-rule="evenodd" clip-rule="evenodd" fill="#FFFFFF" points="302.2,604.4 297.3,534.9 48.6,576.8 121.4,613.1 
		23.8,763.8 97.4,744.3 72.1,836.4 103.2,815.2 84.2,872.5 120,868.5 127.5,931.5 152.4,918.2 192.4,664.6 302.2,604.4 	"/>
	<path fill-rule="evenodd" clip-rule="evenodd" fill="#FFFFFF" d="M205.8,673.4L161.2,1001l52.3-58.3l24.6,92.3L296,927.2l40.9,67.3
		l26.5-69.1l20.4,50l22.7-46.2l52.2,37.6l-151-349.4L205.8,673.4L205.8,673.4z M279.2,698.6l-15.7-28.7l21.7-11.8l16.1,30.7
		L279.2,698.6L279.2,698.6z M279.2,698.6"/>
	<g>
		<defs>
			<polyline id="SVGID_1_" points="314.9,614.5 338.1,665.5 388.9,584 314.9,614.5 			"/>
		</defs>
		<use xlink:href="#SVGID_1_"  overflow="visible" fill-rule="evenodd" clip-rule="evenodd" fill="#FFFFFF"/>
		<clipPath id="SVGID_2_">
			<use xlink:href="#SVGID_1_"  overflow="visible"/>
		</clipPath>
		<rect x="267" y="536.1" clip-path="url(#SVGID_2_)" fill="#FFFFFF" width="169.8" height="177.3"/>
	</g>
	<g>
		<defs>
			<polyline id="SVGID_3_" points="348,689.6 368,733.2 416.5,687 348,689.6 			"/>
		</defs>
		<use xlink:href="#SVGID_3_"  overflow="visible" fill-rule="evenodd" clip-rule="evenodd" fill="#FFFFFF"/>
		<clipPath id="SVGID_4_">
			<use xlink:href="#SVGID_3_"  overflow="visible"/>
		</clipPath>
		<rect x="300.1" y="639.1" clip-path="url(#SVGID_4_)" fill="#FFFFFF" width="164.3" height="142"/>
	</g>
	<g>
		<defs>
			<polyline id="SVGID_5_" points="372.5,741.9 394.3,722.8 460.4,816.6 418.3,847.5 372.5,741.9 			"/>
		</defs>
		<use xlink:href="#SVGID_5_"  overflow="visible" fill-rule="evenodd" clip-rule="evenodd" fill="#FFFFFF"/>
		<clipPath id="SVGID_6_">
			<use xlink:href="#SVGID_5_"  overflow="visible"/>
		</clipPath>
		<rect x="324.6" y="674.9" clip-path="url(#SVGID_6_)" fill="#FFFFFF" width="183.7" height="220.5"/>
	</g>
	<g>
		<defs>
			<path id="SVGID_7_" d="M443.4,619.3c-7.1-17.4-19.3-31.8-35.3-41.6l-6.9,19.2c10.7,7.5,18.9,17.7,23.9,29.9
				c5,12.2,6.3,25.2,3.9,38l18.3,8.7C451.8,655.3,450.5,636.7,443.4,619.3"/>
		</defs>
		<use xlink:href="#SVGID_7_"  overflow="visible" fill-rule="evenodd" clip-rule="evenodd" fill="#FFFFFF"/>
		<clipPath id="SVGID_8_">
			<use xlink:href="#SVGID_7_"  overflow="visible"/>
		</clipPath>
		<rect x="353.3" y="529.8" clip-path="url(#SVGID_8_)" fill="#FFFFFF" width="144.5" height="191.6"/>
	</g>
	<g>
		<defs>
			<path id="SVGID_9_" d="M485.4,603.5c-11.9-29.2-35-51.4-64.2-62.3l-6.7,18.7c23.9,8.9,42.8,27.1,52.6,51.1
				c9.4,22.9,9,48.8-0.9,71.4l17.9,8.5C496.3,663.2,496.9,631.5,485.4,603.5"/>
		</defs>
		<use xlink:href="#SVGID_9_"  overflow="visible" fill-rule="evenodd" clip-rule="evenodd" fill="#FFFFFF"/>
		<clipPath id="SVGID_10_">
			<use xlink:href="#SVGID_9_"  overflow="visible"/>
		</clipPath>
		<rect x="366.6" y="493.3" clip-path="url(#SVGID_10_)" fill="#FFFFFF" width="175" height="245.5"/>
	</g>
	<g>
		<defs>
			<path id="SVGID_11_" d="M506.9,589.4c14.5,35.5,10.8,75.8-9.1,108l18,8.6c22.2-37.3,26.1-83.4,9.4-124.1
				c-16.2-39.8-49.4-69.1-89.6-80.9l-6.7,18.7C463.9,529.6,492.8,554.9,506.9,589.4"/>
		</defs>
		<use xlink:href="#SVGID_11_"  overflow="visible" fill-rule="evenodd" clip-rule="evenodd" fill="#FFFFFF"/>
		<clipPath id="SVGID_12_">
			<use xlink:href="#SVGID_11_"  overflow="visible"/>
		</clipPath>
		<rect x="381" y="453.1" clip-path="url(#SVGID_12_)" fill="#FFFFFF" width="202.4" height="300.8"/>
	</g>
	<path fill="#FFFFFF" d="M738.7,895.4v-66.2h-16.4v-52.7c0-21.5,5.1-36.4,15.4-44.6c10.3-8.2,26-12.4,47.3-12.4V628
		c-11.2,0-20.9,1.1-28.8,3.2c-8,2.2-14.6,5.7-19.7,10.7c-5.2,5-9.2,9.6-12,13.8c-2.8,4.2-6.1,10.1-9.8,17.5l-16.9-32.6H594.9v66.2
		h21.9v122.4h-13.2v66.2H738.7L738.7,895.4z M798.2,768.5c-0.2,42,13.6,74.6,41.3,98c28.1,23.7,62,35.6,101.7,35.6
		c40.2-0.2,73.7-12.2,100.5-36c26.4-23.6,39.6-55.7,39.6-96.1c0-0.5,0-1,0-1.5c-0.7-41.3-14.2-73.8-40.5-97.5
		c-26.3-23.7-60.3-35.9-102.1-36.6c-37.7,0.2-70.6,12.2-98.5,36.1C812,694.7,798,727.4,798.2,768.5L798.2,768.5L798.2,768.5z
		 M913.9,719.8c6.9-12.8,15.2-19.2,24.9-19.2c11.4,0.3,20.4,6.8,27,19.5c6.6,12.6,9.9,28.8,9.9,48.5c0,19.7-3.1,35.8-9.4,48.5
		c-6.3,12.6-14.6,19-25,19c-10.9,0-19.9-6.3-27-19c-7.1-12.6-10.7-29.3-10.7-49.9C903.6,748.4,907.1,732.6,913.9,719.8L913.9,719.8z
		 M1090.5,768.5c-0.2,42,13.6,74.6,41.3,98c28.1,23.7,62,35.6,101.7,35.6c40.2-0.2,73.7-12.2,100.5-36
		c26.4-23.6,39.6-55.7,39.6-96.1c0-0.5,0-1,0-1.5c-0.7-41.3-14.2-73.8-40.5-97.5c-26.3-23.7-60.3-35.9-102.1-36.6
		c-37.7,0.2-70.6,12.2-98.5,36.1C1104.3,694.7,1090.3,727.4,1090.5,768.5L1090.5,768.5L1090.5,768.5z M1206.2,719.8
		c6.9-12.8,15.2-19.2,24.9-19.2c11.4,0.3,20.4,6.8,27,19.5c6.6,12.6,9.9,28.8,9.9,48.5c0,19.7-3.1,35.8-9.4,48.5
		c-6.3,12.6-14.6,19-25,19c-10.9,0-19.9-6.3-27-19c-7.1-12.6-10.7-29.3-10.7-49.9C1195.9,748.4,1199.4,732.6,1206.2,719.8
		L1206.2,719.8z M1448.4,895.4l4.5-32.4c6.5,11,16.7,20.2,30.8,27.6c14.1,7.4,29.8,11.1,47,11.1c25.9,0,48.1-7.1,66.8-21.4
		s28-33.2,28-56.7c0-12.2-2.2-22.9-6.6-32c-4.4-9.2-11.4-16.8-20.9-23c-9.5-6.2-17.7-10.7-24.4-13.6c-6.7-2.9-16.7-6.6-30-11.1
		l-18.7-6.2c-8.3-2.7-14.3-4.7-18-6.1c-3.7-1.4-8-3.2-12.8-5.3c-4.8-2.2-8.2-4.4-10.2-6.6c-2-2.2-3-4.7-3-7.3
		c0-12.3,6.6-18.4,19.9-18.4c13.3,0,25.2,3.9,35.9,11.6c10.7,7.7,16,16.8,16,27.2h66.2v-91.8h-62.7l-4,33.6
		c-5.5-11.1-15.3-20.5-29.5-28.2c-14.2-7.7-29.7-11.6-46.6-11.6c-21.4,0-41.7,6.4-60.8,19.2c-19.2,12.8-28.7,31-28.7,54.7
		c0,38.5,22.6,65.7,67.7,81.6c6.1,2.2,13.3,4.3,21.6,6.5l20.9,5.5c5.6,1.4,11.1,2.9,16.4,4.5c5.3,1.6,9.3,3.5,11.9,5.6
		c2.7,2.1,4,4.5,4,7.3c0,10.8-7.5,16.1-22.4,16.1c-6.5,0-13.4-0.8-20.9-2.4c-7.5-1.6-14.8-5-22.1-10.3c-7.3-5.2-10.9-11.6-10.9-19.2
		h-68.2v91.8H1448.4L1448.4,895.4z M1670.8,706.8v90.8c0.3,15.9,0.9,28.1,1.6,36.6c0.7,8.5,2.5,18,5.3,28.5
		c2.8,10.5,7,18.4,12.7,23.5c5.6,5.1,13.5,9.5,23.5,13.1c10,3.6,22.5,5.3,37.4,5.3c7.5,0,17.9-0.9,31.3-2.6
		c13.4-1.7,23.5-3.8,30.3-6.1v-66.2c-13.6,5.8-24.3,8.7-32.1,8.7c-2.8,0-5.2-0.5-7.2-1.4c-2-0.9-3.6-2.3-4.9-4.1
		c-1.2-1.8-2.2-3.6-2.9-5.3c-0.7-1.7-1.1-4-1.2-6.8c-0.2-2.8-0.3-5.3-0.5-7.3c-0.2-2.1-0.2-4.9,0-8.5c0.2-3.6,0.2-6,0.2-7.3v-90.8
		h48.5v-66.2h-48.5v-76.9l-93.8,30.1v46.8h-27.4v66.2H1670.8L1670.8,706.8z M1977.5,895.4v-66.2h-16.4v-52.7
		c0-21.5,5.1-36.4,15.4-44.6c10.3-8.2,26-12.4,47.3-12.4V628c-11.2,0-20.9,1.1-28.8,3.2c-8,2.2-14.6,5.7-19.7,10.7
		c-5.2,5-9.2,9.6-12,13.8c-2.8,4.2-6.1,10.1-9.8,17.5l-16.9-32.6h-102.8v66.2h21.9v122.4h-13.2v66.2H1977.5L1977.5,895.4z"/>
</g>
</svg>
